<mxfile host="app.diagrams.net" modified="2023-08-29T22:17:11.823Z" agent="Mozilla/5.0 (Windows NT 10.0; Win64; x64) AppleWebKit/537.36 (KHTML, like Gecko) Chrome/114.0.0.0 Safari/537.36 OPR/100.0.0.0" version="21.6.8" etag="RQ3sn8mNtl4G0SrPmkrj" type="github">
  <diagram name="PÃ¡gina-1" id="pe9PbRQQL5UhokLPyu_G">
    <mxGraphModel>
      <root>
        <mxCell id="0" />
        <mxCell id="1" parent="0" />
      </root>
    </mxGraphModel>
  </diagram>
</mxfile>
